<?xml version="1.0" encoding="utf-8"?>
<!-- Generator: Adobe Illustrator 25.2.3, SVG Export Plug-In . SVG Version: 6.00 Build 0)  -->
<svg version="1.1" id="Layer_1" xmlns="http://www.w3.org/2000/svg" xmlns:xlink="http://www.w3.org/1999/xlink" x="0px" y="0px"
	 viewBox="0 0 252.3 43.2" style="enable-background:new 0 0 252.3 43.2;" xml:space="preserve">
<g>
	<path d="M23.7,25.2c5.4-0.1,10.8-0.1,16.2-0.2c0.6,0,1.3,0,1.9,0.1c1.4,0.2,2.1,1.1,2,2.5c-0.1,0.8-0.2,1.5-0.5,2.3
		c-0.6,2-1.5,3.9-2.6,5.7c-1.4,2.2-3.3,3.9-5.7,5c-2.7,1.2-5.5,2.1-8.5,2.5c-5.6,0.7-10.6-0.7-15.1-4.3c-2.3-1.9-4.1-4.1-5.1-6.9
		c-0.4-1.3-0.9-2.6-1.4-3.9c-0.1-0.3-0.2-0.6-0.2-1c-0.1-0.8,0.4-1.4,1.2-1.6c0.2,0,0.3-0.1,0.5,0c3.8,0.1,7.5-0.1,11.3-0.2
		C19.7,25.2,21.7,25.2,23.7,25.2C23.7,25.2,23.7,25.2,23.7,25.2z M8.3,28.5c0.1,0.1,0.1,0.2,0.1,0.4c0.2,0.6,0.5,1.2,0.7,1.8
		c0.7,2.1,1.9,3.9,3.7,5.4c0.1,0.1,0.2,0.2,0.3,0.2c0.5-0.5,1-0.9,1.5-1.3c1.6-1.2,3.3-1.9,5.1-2.5c2.3-0.7,4.6-1.1,7-0.9
		c1.9,0.2,3.8,0.5,5.6,1c1.4,0.4,2.6,1,3.7,1.9c0.2,0.2,0.5,0.4,0.8,0.7c0.2,0.2,0.3,0.2,0.5,0c0.2-0.4,0.5-0.7,0.8-1.1
		c1-1.6,1.7-3.2,2.3-5c0.1-0.3,0.2-0.6,0.2-0.9c-0.4,0-0.7,0-1,0c-4.6,0-9.3,0.1-13.9,0.1c-3,0-6.1,0-9.1,0c-2.7,0-5.4,0.1-8,0.2
		C8.5,28.5,8.4,28.5,8.3,28.5z M34.7,37.3c-0.8-0.8-1.7-1.4-2.7-1.7c-0.8-0.2-1.7-0.4-2.5-0.6c-2.9-0.7-5.9-0.7-8.7,0.3
		c-1.5,0.5-3.1,1.1-4.4,2.1c-0.1,0.1-0.3,0.2-0.4,0.4c-0.2,0.2-0.1,0.4,0.2,0.5c3,1.6,6.2,2.1,9.6,1.7c2.6-0.3,5.1-1,7.5-2
		C33.7,37.8,34.2,37.6,34.7,37.3z"/>
	<path d="M27.3,10.9c-0.7,0-1.5,0-2.2,0c-1.5,0-3,0-4.5,0c-0.3,0-0.4,0.1-0.4,0.4c0,2.1-0.5,4.1-1.7,5.9c-1.2,1.8-2.8,2.9-4.9,3.3
		c-2.1,0.5-4.3,0.5-6.4,0c-1-0.2-1.9-0.6-2.7-1.2c-1.2-0.9-2.1-1.9-2.8-3.2c-0.2-0.3-0.4-0.7-0.6-1C0.2,13.6-0.1,12,0,10.2
		c0.2-2.6,1.3-4.8,3-6.7C4.4,1.9,6.3,1,8.5,0.8c0.9-0.1,1.8,0,2.7,0.1c1,0.1,1.9,0.6,2.8,1.1c0.8,0.5,1.5,0.9,2.3,1.4
		c1.7,1,2.8,2.5,3.4,4.4c0.1,0.3,0.2,0.4,0.5,0.3c1.5-0.2,3-0.1,4.5-0.1c0.8,0.1,1.6,0.1,2.4,0.1c0.2,0,0.2-0.1,0.3-0.2
		c0.5-2.9,2.1-5,4.6-6.6c1.7-1.1,3.6-1.5,5.7-1.2c2.2,0.2,4.2,0.9,6.2,1.8c0.9,0.4,1.6,1.1,2,1.9C46.5,5,47,6.4,47.3,7.8
		c0.4,2.1,0.2,4.2-0.7,6.2c-0.1,0.3-0.2,0.5-0.3,0.8c-0.4,1.2-1.1,2.3-2.2,3c-1.4,1-2.8,1.8-4.5,2.3c-1.3,0.4-2.5,0.4-3.8,0.1
		c-1.3-0.3-2.6-0.7-3.9-1.4c-2.3-1.2-3.7-3.1-4.2-5.6C27.5,12.5,27.4,11.7,27.3,10.9z M30.1,9.3C30,9.3,30,9.3,30.1,9.3
		c0,1.1,0.1,2.2,0.3,3.3c0.3,2,1.4,3.3,3.3,4.1c0.8,0.3,1.7,0.6,2.6,0.8c0.7,0.2,1.5,0.2,2.2,0c1.5-0.3,2.8-1.1,4-1.9
		c0.6-0.4,0.9-0.9,1.2-1.6c0.2-0.5,0.4-1,0.6-1.5c0.4-0.9,0.5-1.8,0.5-2.7c0-1.6-0.6-3-1.2-4.5c-0.2-0.4-0.5-0.8-1-1
		c-1.4-0.6-2.9-1.1-4.4-1.4c-2.2-0.4-4.1,0-5.8,1.5c-0.1,0.1-0.3,0.2-0.4,0.3c-0.6,0.4-1,0.9-1.3,1.6C30.2,7.3,30,8.3,30.1,9.3z
		 M10.4,18c0.7-0.1,1.4-0.1,2.1-0.2c2.2-0.2,3.7-1.5,4.4-3.6c0.7-1.9,0.7-3.8,0.1-5.7c-0.4-1.2-1.1-2.1-2.1-2.7
		c-0.8-0.5-1.5-0.9-2.3-1.4c-0.7-0.4-1.5-0.8-2.4-0.8c-0.5,0-1.1,0-1.6,0c-0.4,0-0.9,0.1-1.2,0.2C6.1,4.4,5.1,5.2,4.4,6.3
		c-0.9,1.5-1.6,3-1.6,4.7c0,0.9,0.2,1.7,0.7,2.4c0.3,0.5,0.6,1,0.9,1.5c0.9,1.5,2,2.6,3.8,2.9C8.9,17.9,9.6,18,10.4,18z"/>
	<path d="M35.5,10c0-1.2,0.7-1.7,1.9-1.8c1.1-0.1,1.7,0.9,1.7,1.9c0,0.8-0.9,1.7-1.8,1.6C36.2,11.6,35.5,11.1,35.5,10z"/>
	<path d="M8,10.6C7.9,9.4,8.7,8.8,9.8,8.8c1-0.1,1.5,0.7,1.6,1.8c0.1,0.9-0.8,1.8-1.6,1.8C8.7,12.3,7.9,11.8,8,10.6z"/>
	<g>
		<path d="M78.2,9.4c-0.1-0.7,0.1-1.2,0.4-1.7C78.9,7.3,79.4,7,80,7c0.5-0.1,1,0.1,1.4,0.3c0.4,0.3,0.6,0.8,0.7,1.4
			c0.2,1.8,0.3,3.9,0.4,6.2c0.1,2.3,0.2,4.6,0.2,7c0,2.4,0,4.7,0,6.9s-0.1,4.2-0.2,5.9c0,0.6-0.2,1-0.6,1.4s-0.8,0.5-1.3,0.6
			c-0.8,0-1.3-0.1-1.7-0.5c-0.3-0.4-0.5-0.8-0.5-1.5c0-1.2,0.1-2.8,0.1-4.6s0.1-3.8,0.1-6c-2.7,0.1-5.5,0.1-8.2,0.3
			s-5.1,0.2-7.1,0.3c-0.1,2-0.1,3.8-0.1,5.6s0,3.3,0.1,4.5c0.1,0.6-0.1,1-0.5,1.3c-0.4,0.3-0.8,0.5-1.3,0.6c-0.5,0-1-0.1-1.4-0.3
			c-0.5-0.2-0.7-0.7-0.8-1.3c-0.1-0.8-0.1-1.8-0.1-3c0-1.2,0-2.5,0-4c0-1.5,0-3,0.1-4.7s0.1-3.3,0.2-5s0.1-3.3,0.2-4.9
			c0.1-1.6,0.2-3.1,0.3-4.5c0.1-0.6,0.3-1.1,0.7-1.5C61.2,7.2,61.7,7,62.3,7c0.5,0,0.9,0.2,1.3,0.6s0.5,0.9,0.4,1.5
			c-0.1,1.1-0.1,2.4-0.2,3.6c-0.1,1.1-0.1,2.4-0.2,3.8c-0.1,1.4-0.2,2.9-0.2,4.5c0.9-0.1,1.9-0.1,3-0.2c1.1-0.1,2.4-0.1,3.7-0.2
			c1.3,0,2.7-0.1,4.1-0.1s2.9,0,4.3,0c0-1.9-0.1-3.8-0.1-5.7C78.4,12.9,78.3,11.1,78.2,9.4z"/>
		<path d="M111.4,7.6c0.4-0.3,0.9-0.5,1.3-0.4c0.5,0.1,0.9,0.2,1.2,0.5c0.3,0.3,0.6,0.7,0.8,1.2s0.1,1.1-0.3,1.6
			c-0.7,0.9-1.6,2-2.6,3.2s-2.2,2.5-3.4,3.7c-1.2,1.2-2.3,2.4-3.4,3.6c-1.1,1.1-2,2.1-2.8,2.8c0,2.1,0,4.1,0.1,5.9
			c0.1,1.8,0.1,3.9,0.1,6c0,0.7-0.3,1.2-0.7,1.5c-0.4,0.3-0.9,0.4-1.4,0.4c-0.4,0-0.8-0.1-1.2-0.3s-0.6-0.7-0.7-1.3
			c0-2.3,0-4.4-0.1-6.4s-0.1-4.1-0.1-6.3c-0.8-0.7-1.5-1.6-2.4-2.6s-1.6-2.1-2.4-3.2c-0.8-1.1-1.6-2.3-2.3-3.5
			c-0.7-1.2-1.4-2.3-1.9-3.3c-0.2-0.5-0.3-1-0.1-1.4s0.5-0.7,0.9-1C90.3,8,90.8,7.9,91.4,8c0.5,0.1,1,0.4,1.3,0.9
			c1.1,1.7,2.3,3.5,3.6,5.5s2.6,3.7,4,5.2c1-0.9,1.9-1.9,3-2.9c1-1,2-2.1,3-3.2c1-1.1,1.9-2.1,2.8-3.1
			C109.9,9.3,110.7,8.4,111.4,7.6z"/>
		<path d="M136.9,32.6c0.7-0.1,1.3,0.1,1.7,0.4s0.6,0.7,0.7,1.2c0.1,0.5,0,1-0.3,1.4c-0.3,0.4-0.9,0.6-1.8,0.7
			c-0.6,0.1-1.4,0.1-2.3,0.2c-0.9,0.1-1.8,0.1-2.7,0.2c-1,0-2,0.1-3,0.1c-1,0-2,0-3-0.1c-2.2-0.1-3.7-0.8-4.6-2.1
			c-0.8-1.3-1.3-3.2-1.3-5.7c-0.1-3,0-6.2,0.1-9.6s0.3-6.8,0.6-10.3c0-0.3,0.1-0.6,0.2-0.8c0.2-0.6,0.7-1,1.4-1.2
			C123,7,123.2,7,123.4,7c0.1,0,0.2,0,0.3,0.1c1.3-0.1,2.7-0.1,4-0.1s2.6,0,3.8,0c1.2,0,2.3,0,3.3,0.1c1,0,1.8,0.1,2.5,0.1
			c0.7,0,1.2,0.2,1.6,0.6c0.3,0.4,0.5,0.8,0.5,1.2c0,0.5-0.2,1-0.5,1.4c-0.3,0.4-0.9,0.6-1.8,0.5c-0.7,0-1.5,0-2.5,0
			c-1,0-2,0-3.1-0.1s-2.2,0-3.3-0.1s-2.2,0-3.2,0c-0.1,1-0.1,2.3-0.2,3.9c-0.1,1.6-0.2,3.4-0.2,5.4c2.5-0.1,4.8-0.2,6.9-0.2
			s3.8,0,5.1,0c0.7,0,1.2,0.2,1.6,0.6c0.3,0.4,0.5,0.8,0.5,1.2c0,0.5-0.2,1-0.5,1.4c-0.3,0.4-0.9,0.5-1.8,0.5c-0.7,0-1.6,0-2.5,0
			c-1,0-2,0-3,0c-1.1,0-2.1,0-3.2,0.1c-1.1,0-2.2,0-3.2,0c0,1.1-0.1,2.3-0.1,3.4s0,2.1,0,3.1c0,0.8,0.2,1.5,0.6,2.1s1.1,0.9,1.8,0.9
			c2.1,0.2,4.1,0.1,5.8-0.1C134.4,32.9,135.9,32.7,136.9,32.6z"/>
		<path d="M146.4,9c0.1-0.6,0.3-1.1,0.7-1.5s0.9-0.6,1.6-0.5c2.6,0.1,5,0.4,7.3,0.9c2.3,0.5,4.3,1.3,6,2.4c1.7,1.1,3.1,2.7,4.2,4.7
			s1.7,4.5,1.9,7.5c0.3,4.9-0.6,8.6-2.7,11.1s-5.4,3.8-10.1,3.9c-1.7,0.1-3.1,0-4.2-0.1c-1.1-0.1-2-0.2-2.6-0.3
			c-0.8-0.1-1.4-0.3-1.8-0.5c-0.4-0.2-0.6-0.4-0.8-0.7c-0.1-0.3-0.2-0.5-0.2-0.8c-0.1-0.8-0.1-1.8-0.1-3c0-1.2,0-2.5,0-4
			c0-1.5,0.1-3,0.1-4.7c0.1-1.6,0.1-3.3,0.2-5s0.1-3.3,0.2-4.9C146.2,11.9,146.3,10.4,146.4,9z M150.4,10.9
			c-0.1,1.1-0.1,2.6-0.2,4.4s-0.2,3.9-0.3,6c-0.1,2.1-0.1,4.2-0.2,6.3s0,4,0.1,5.6c1,0.3,1.9,0.5,2.9,0.6s2,0.2,3.1,0
			c3-0.2,5.3-1.3,6.8-3.1s2.1-4.5,1.7-8.1c-0.2-2.1-0.6-4-1.3-5.4s-1.6-2.6-2.8-3.5c-1.2-0.9-2.6-1.6-4.2-2
			C154.3,11.2,152.4,10.9,150.4,10.9z"/>
		<path d="M191.5,32.6c0.7-0.1,1.3,0.1,1.7,0.4s0.6,0.7,0.7,1.2c0.1,0.5,0,1-0.3,1.4c-0.3,0.4-0.9,0.6-1.8,0.7
			c-0.6,0.1-1.4,0.1-2.3,0.2c-0.9,0.1-1.8,0.1-2.7,0.2c-1,0-2,0.1-3,0.1c-1,0-2,0-3-0.1c-2.2-0.1-3.7-0.8-4.6-2.1
			c-0.8-1.3-1.3-3.2-1.3-5.7c-0.1-3,0-6.2,0.1-9.6s0.3-6.8,0.6-10.3c0-0.3,0.1-0.6,0.2-0.8c0.2-0.6,0.7-1,1.4-1.2
			c0.2-0.1,0.5-0.1,0.6-0.1c0.1,0,0.2,0,0.3,0.1c1.3-0.1,2.7-0.1,4-0.1c1.3,0,2.6,0,3.8,0c1.2,0,2.3,0,3.3,0.1c1,0,1.8,0.1,2.5,0.1
			c0.7,0,1.2,0.2,1.6,0.6c0.3,0.4,0.5,0.8,0.5,1.2c0,0.5-0.2,1-0.5,1.4s-0.9,0.6-1.8,0.5c-0.7,0-1.5,0-2.5,0c-1,0-2,0-3.1-0.1
			s-2.2,0-3.3-0.1s-2.2,0-3.2,0c-0.1,1-0.1,2.3-0.2,3.9s-0.2,3.4-0.2,5.4c2.5-0.1,4.8-0.2,6.9-0.2s3.8,0,5.1,0
			c0.7,0,1.2,0.2,1.6,0.6s0.5,0.8,0.5,1.2c0,0.5-0.2,1-0.5,1.4c-0.3,0.4-0.9,0.5-1.8,0.5c-0.7,0-1.6,0-2.5,0c-1,0-2,0-3,0
			c-1.1,0-2.1,0-3.2,0.1s-2.2,0-3.1,0c0,1.1-0.1,2.3-0.1,3.4s0,2.1,0,3.1c0,0.8,0.2,1.5,0.6,2.1c0.4,0.6,1.1,0.9,1.8,0.9
			c2.1,0.2,4.1,0.1,5.8-0.1S190.4,32.7,191.5,32.6z"/>
		<path d="M198.7,23.4c0-2.1,0.2-4.2,0.7-6.1c0.5-1.9,1.2-3.6,2.3-5s2.4-2.6,4.1-3.4c1.7-0.8,3.6-1.2,6-1.2c2.1,0,3.9,0.4,5.4,1.2
			c1.5,0.8,2.8,1.8,3.8,3s1.7,2.7,2.2,4.3s0.8,3.3,0.8,5.1c0,1.8-0.3,3.5-0.9,5.2c-0.6,1.7-1.4,3.3-2.4,4.6s-2.3,2.5-3.8,3.3
			s-3.1,1.3-4.9,1.3c-1.7,0-3.3-0.2-4.9-0.5s-2.9-1-4.2-1.9s-2.2-2.2-2.9-3.8C199.1,28,198.7,25.9,198.7,23.4z M211.3,11.5
			c-1.6,0-2.9,0.3-4,1s-2,1.6-2.7,2.6c-0.7,1.1-1.2,2.3-1.5,3.7c-0.3,1.4-0.5,2.8-0.5,4.2c0,2.2,0.3,3.9,1,5.1s1.5,2.1,2.4,2.7
			c1,0.6,2,0.9,3.1,1c1.1,0.1,2,0.2,2.9,0.1c1.2,0,2.4-0.4,3.3-1s1.8-1.4,2.4-2.4s1.2-2.1,1.5-3.3c0.3-1.2,0.5-2.5,0.6-3.7
			c0-1.5-0.1-2.8-0.4-4.1c-0.3-1.2-0.8-2.3-1.5-3.2c-0.7-0.9-1.6-1.6-2.7-2.1C214.2,11.8,212.9,11.5,211.3,11.5z"/>
		<path d="M231,9c0.1-0.6,0.3-1.1,0.7-1.5s0.9-0.6,1.5-0.6c0.2,0,0.5,0.1,0.8,0.2c0.2,0.1,0.5,0.3,0.6,0.4s0.3,0.4,0.4,0.7
			c0.1,0.2,0.1,0.5,0.1,0.8c0,1.2-0.1,2.5-0.1,3.8c-0.1,1.2-0.1,2.5-0.2,4c-0.1,1.5-0.1,3.1-0.1,4.7c1.8-1.6,3.4-3,4.7-4.3
			s2.5-2.5,3.5-3.6s1.9-2.1,2.7-3c0.8-0.9,1.6-1.8,2.4-2.6c0.5-0.4,1.1-0.6,1.6-0.6c0.5,0.1,0.9,0.2,1.2,0.6
			c0.3,0.3,0.5,0.8,0.6,1.3s-0.2,1-0.6,1.5c-1.4,1.5-2.9,3.1-4.6,4.9c-1.7,1.8-3.3,3.4-5,5c0.7,0.9,1.5,1.9,2.3,3
			c0.9,1.1,1.8,2.3,2.7,3.4c0.9,1.1,1.8,2.2,2.7,3.2s1.8,1.8,2.6,2.4c0.6,0.5,0.9,1,1,1.5c0,0.5-0.1,1-0.5,1.3s-0.8,0.6-1.3,0.7
			s-1,0-1.5-0.3c-0.9-0.7-1.9-1.6-2.9-2.6s-2-2.2-3-3.4c-1-1.2-1.9-2.3-2.7-3.5c-0.8-1.1-1.6-2.1-2.2-3c-0.6,0.6-1.3,1.2-1.9,1.7
			c-0.6,0.5-1.2,1-1.7,1.4c0,1.6,0,3.1,0,4.5c0,1.4,0.1,2.6,0.2,3.6c0.1,0.6-0.1,1-0.5,1.3c-0.4,0.3-0.9,0.5-1.4,0.6
			c-0.5,0-1-0.1-1.4-0.3c-0.4-0.2-0.7-0.7-0.8-1.3c-0.1-0.8-0.1-1.8-0.1-3c0-1.2-0.1-2.5-0.1-4s-0.1-3-0.1-4.7s0-3.3,0.1-4.9
			s0.1-3.3,0.2-4.9C230.8,11.9,230.9,10.4,231,9z"/>
	</g>
</g>
</svg>
